<?xml version="1.0" encoding="iso-8859-1"?>
<!-- Generator: Adobe Illustrator 19.0.0, SVG Export Plug-In . SVG Version: 6.00 Build 0)  -->
<svg version="1.1" id="Capa_1" xmlns="http://www.w3.org/2000/svg" xmlns:xlink="http://www.w3.org/1999/xlink" x="0px" y="0px"
	 viewBox="0 0 512 512" style="enable-background:new 0 0 512 512;" xml:space="preserve">
<g>
	<g>
		<rect x="226" y="432" width="60" height="30"/>
	</g>
</g>
<g>
	<g>
		<polygon points="234.008,211 228.194,261 277.992,261 283.806,211 		"/>
	</g>
</g>
<g>
	<g>
		<path d="M101,0v512h310V0H101z M381,482H131v-70h250V482z M171,211v-30h36.294l3.806-32.732l29.799,3.465L237.496,181h49.798
			l3.806-32.732l29.799,3.465L317.496,181H341v30h-26.992l-5.814,50H341v30h-36.294l-3.806,32.732l-29.799-3.465L274.504,291
			h-49.798l-3.806,32.732l-29.799-3.465L194.504,291H171v-30h26.992l5.814-50H171z M381,60H131V30h250V60z"/>
	</g>
</g>
<g>
</g>
<g>
</g>
<g>
</g>
<g>
</g>
<g>
</g>
<g>
</g>
<g>
</g>
<g>
</g>
<g>
</g>
<g>
</g>
<g>
</g>
<g>
</g>
<g>
</g>
<g>
</g>
<g>
</g>
</svg>
