<svg xmlns="http://www.w3.org/2000/svg" height="512pt" version="1.1" viewBox="0 0 512 512" width="512pt">
<g id="surface1">
<path d="M 456.832031 0 L 55.164062 0 C 24.746094 0 0 24.746094 0 55.167969 L 0 456.832031 C 0 487.253906 24.746094 512 55.164062 512 L 456.832031 512 C 487.253906 512 512 487.253906 512 456.832031 L 512 55.167969 C 512 24.746094 487.253906 0 456.832031 0 Z M 400.601562 447.734375 L 111.398438 447.734375 C 103.117188 447.734375 96.398438 441.015625 96.398438 432.734375 C 96.398438 424.449219 103.117188 417.734375 111.398438 417.734375 L 400.601562 417.734375 C 408.886719 417.734375 415.601562 424.449219 415.601562 432.734375 C 415.601562 441.015625 408.886719 447.734375 400.601562 447.734375 Z M 160.664062 368.46875 C 160.664062 360.183594 167.382812 353.46875 175.664062 353.46875 L 336.332031 353.46875 C 344.617188 353.46875 351.332031 360.183594 351.332031 368.46875 C 351.332031 376.75 344.617188 383.46875 336.332031 383.46875 L 175.664062 383.46875 C 167.382812 383.46875 160.664062 376.75 160.664062 368.46875 Z M 447.730469 304.199219 C 447.730469 312.484375 441.015625 319.199219 432.730469 319.199219 L 79.269531 319.199219 C 70.984375 319.199219 64.269531 312.484375 64.269531 304.199219 L 64.269531 79.269531 C 64.269531 70.984375 70.984375 64.269531 79.269531 64.269531 L 432.734375 64.269531 C 441.019531 64.269531 447.734375 70.984375 447.734375 79.269531 L 447.734375 304.199219 Z M 447.730469 304.199219 " style=" stroke:none;fill-rule:nonzero;fill:rgb(0%,0%,0%);fill-opacity:1;" />
<path d="M 191.730469 94.269531 C 186.019531 94.269531 180.804688 97.511719 178.277344 102.632812 L 94.269531 272.960938 L 94.269531 289.199219 L 297.210938 289.199219 L 205.183594 102.632812 C 202.65625 97.511719 197.441406 94.269531 191.730469 94.269531 Z M 191.730469 94.269531 " style=" stroke:none;fill-rule:nonzero;fill:rgb(0%,0%,0%);fill-opacity:1;" />
<path d="M 320.308594 158.53125 C 320.292969 158.53125 320.28125 158.53125 320.265625 158.53125 C 315.382812 158.53125 310.800781 160.914062 307.992188 164.910156 L 285.296875 197.226562 L 330.660156 289.199219 L 417.730469 289.199219 L 417.730469 287.613281 L 332.585938 164.976562 C 329.792969 160.953125 325.207031 158.546875 320.308594 158.53125 Z M 320.308594 158.53125 " style=" stroke:none;fill-rule:nonzero;fill:rgb(0%,0%,0%);fill-opacity:1;" />
</g>
</svg>